<?xml version="1.0" encoding="UTF-8"?>
<svg version="1.1" xmlns="http://www.w3.org/2000/svg" width="4167" height="4167">
<path d="M0 0 C1415.64057046 0 1415.64057046 0 1488.6875 8.3125 C1489.96225189 8.45584778 1491.23700378 8.59919556 1492.55038452 8.74688721 C1584.31451451 19.09018064 1675.10388002 36.39946808 1763 65 C1763.72537964 65.23527405 1764.45075928 65.4705481 1765.19812012 65.71295166 C1809.85256199 80.22146173 1852.81846596 98.76246828 1894.8125 119.6875 C1895.84983276 120.20294373 1896.88716553 120.71838745 1897.95593262 121.24945068 C1912.09118453 128.29013631 1925.90975858 135.77105073 1939.60501099 143.63143921 C1942.65448413 145.37398974 1945.7234431 147.07668961 1948.80078125 148.76953125 C1963.82805332 157.05499451 1978.4644656 165.88261323 1993 175 C1993.93376465 175.58217285 1994.8675293 176.1643457 1995.82958984 176.76416016 C2030.07727593 198.1312157 2063.18815412 221.43314845 2094.92480469 246.37011719 C2096.897624 247.91959268 2098.87396301 249.46444511 2100.8515625 251.0078125 C2110.79299751 258.77572466 2120.55584954 266.73983911 2130.16430664 274.91625977 C2133.56944129 277.80893451 2137.01725775 280.63814467 2140.5 283.4375 C2145.88142204 287.81334245 2150.93998569 292.49308815 2156.0078125 297.22265625 C2158.32240262 299.38077719 2160.66895746 301.4917381 2163.0625 303.5625 C2168.48024363 308.25937961 2173.73517033 313.13357968 2179 318 C2179.56689041 318.52332413 2180.13378082 319.04664825 2180.71784973 319.58583069 C2191.25271854 329.32962955 2201.49735239 339.34033369 2211.63061523 349.50024414 C2214.08787782 351.96293387 2216.55053317 354.42014202 2219.01367188 356.87695312 C2220.60448787 358.468429 2222.19499413 360.06021454 2223.78515625 361.65234375 C2224.50816422 362.37332748 2225.23117218 363.09431122 2225.97608948 363.83714294 C2229.97054844 367.84988719 2233.78631104 371.96156411 2237.48460388 376.24879456 C2239.25072294 378.28973769 2241.07754641 380.26315328 2242.9375 382.21875 C2243.60523437 382.92386719 2244.27296875 383.62898438 2244.9609375 384.35546875 C2245.63382813 385.06316406 2246.30671875 385.77085937 2247 386.5 C2252.12949517 391.89481389 2257.14257924 397.35846729 2262 403 C2262.73162354 403.84836426 2262.73162354 403.84836426 2263.47802734 404.71386719 C2264.88406073 406.34847238 2266.28646558 407.9861088 2267.6875 409.625 C2268.72779139 410.84120844 2269.76815823 412.05735236 2270.80859375 413.2734375 C2271.33437012 413.88799805 2271.86014648 414.50255859 2272.40185547 415.13574219 C2273.98430606 416.9816928 2275.57146204 418.8234841 2277.16015625 420.6640625 C2282.91465912 427.33697173 2288.55959214 434.0663516 2294 441 C2295.20849609 442.53140625 2295.20849609 442.53140625 2296.44140625 444.09375 C2298.78322382 447.06355312 2301.11683093 450.03970724 2303.44775391 453.01806641 C2304.50878272 454.37280562 2305.57101312 455.72660438 2306.63427734 457.07958984 C2319.94012261 474.0146515 2332.7069778 491.31621823 2345 509 C2345.49790039 509.71526855 2345.99580078 510.43053711 2346.50878906 511.16748047 C2398.96992853 586.71219087 2443.40423561 668.33653386 2477 754 C2477.25463013 754.64829773 2477.50926025 755.29659546 2477.77160645 755.96453857 C2513.49373789 847.04206879 2539.03474698 942.16588966 2562 1152 C2562.05929688 1153.24120605 2562.11859375 1154.48241211 2562.1796875 1155.76123047 C2566.91238823 1259.89473187 2557.64801701 1364.85443023 2421 1782 C2420.15646973 1783.55557617 2420.15646973 1783.55557617 2419.29589844 1785.14257812 C2401.19976841 1818.45612361 2381.82211803 1850.87279708 2360.8125 1882.4375 C2360.31475067 1883.18605255 2359.81700134 1883.9346051 2359.3041687 1884.70584106 C2352.04988252 1895.60112325 2344.59462252 1906.33957393 2337 1917 C2336.36070557 1917.90145752 2335.72141113 1918.80291504 2335.06274414 1919.73168945 C2328.10415294 1929.52855474 2320.89824527 1939.10060134 2313.4765625 1948.55078125 C2310.61104117 1952.20268099 2307.80029677 1955.89269517 2305.00292969 1959.59692383 C2299.49116772 1966.8867002 2293.76693136 1973.91363522 2287.765625 1980.8046875 C2285.28378117 1983.65591412 2282.88031819 1986.5631326 2280.5 1989.5 C2272.6875808 1999.10659142 2264.58488293 2008.44657311 2256.21484375 2017.5703125 C2254.35993183 2019.60515415 2252.54571202 2021.66321247 2250.75 2023.75 C2245.63062835 2029.63310076 2240.24758868 2035.27803597 2234.90917969 2040.96142578 C2233.0703748 2042.92485555 2231.24109876 2044.89671585 2229.4140625 2046.87109375 C2221.12059571 2055.80124853 2212.6072476 2064.49871016 2204 2073.125 C2203.46329681 2073.66429138 2202.92659363 2074.20358276 2202.37362671 2074.75921631 C2196.94402875 2080.20950578 2191.49176115 2085.57425041 2185.640625 2090.57763672 C2183.48309582 2092.44813746 2181.48762624 2094.45121603 2179.5 2096.5 C2176.21145472 2099.82769463 2172.83618376 2102.95336441 2169.28515625 2105.99609375 C2166.93513231 2108.05688398 2164.64949784 2110.17489502 2162.36547852 2112.30810547 C2156.93854308 2117.37577194 2151.40567342 2122.20311324 2145.61328125 2126.85546875 C2143.00152377 2128.99874956 2140.49634698 2131.2238033 2138 2133.5 C2132.8249007 2138.20463572 2127.43858803 2142.60518139 2122 2147 C2120.78057483 2147.99917657 2119.56186423 2148.99922565 2118.34375 2150 C2109.41754271 2157.31937847 2100.3366934 2164.40379881 2091.13671875 2171.375 C2089.01140946 2172.99132297 2086.89500559 2174.61860422 2084.78125 2176.25 C2074.67001523 2184.04724999 2064.40087888 2191.59415016 2054 2199 C2053.26571777 2199.52609863 2052.53143555 2200.05219727 2051.77490234 2200.59423828 C2021.27000591 2222.42349145 1989.46360566 2242.6059556 1956.95458984 2261.29931641 C1953.93039078 2263.04006758 1950.91223582 2264.79098731 1947.89453125 2266.54296875 C1945.97163939 2267.65413956 1944.04847394 2268.76483709 1942.125 2269.875 C1941.23272705 2270.39344482 1940.3404541 2270.91188965 1939.42114258 2271.44604492 C1938.60411865 2271.91502197 1937.78709473 2272.38399902 1936.9453125 2272.8671875 C1936.22875488 2273.28081543 1935.51219727 2273.69444336 1934.77392578 2274.12060547 C1933 2275 1933 2275 1931 2275 C1931.22848633 2275.53101318 1931.45697266 2276.06202637 1931.69238281 2276.60913086 C1940.78106014 2297.79189597 1949.43821511 2319.15031367 1958.12945557 2340.49829102 C1962.44934533 2351.10792581 1966.78564408 2361.71081524 1971.125 2372.3125 C1971.86663687 2374.12482945 1972.60825471 2375.93716669 1973.34985352 2377.74951172 C1974.82722315 2381.35989932 1976.30469017 2384.97024705 1977.78222656 2388.58056641 C1981.1466525 2396.80168901 1984.50975987 2405.02335104 1987.87298584 2413.2449646 C1989.74860504 2417.82999775 1991.62430662 2422.41499719 1993.5 2427 C1994.2500004 2428.83333317 1995.0000004 2430.6666665 1995.75 2432.5 C1996.306875 2433.86125 1996.306875 2433.86125 1996.875 2435.25 C2034 2526 2071.125 2616.75 2198.25 2927.5 C2198.62123993 2928.40747482 2198.99247986 2929.31494965 2199.37496948 2930.24992371 C2200.12507279 2932.0835107 2200.87517452 2933.91709835 2201.62527466 2935.75068665 C2203.49868104 2940.33014422 2205.37211483 2944.90959057 2207.24560547 2949.48901367 C2210.6396553 2957.78525714 2214.03349685 2966.08158552 2217.42633057 2974.37832642 C2224.94164295 2992.75601784 2232.4608996 3011.13205254 2240 3029.5 C2247.92167638 3048.80003952 2255.82110849 3068.10914944 2263.71777344 3087.41943359 C2267.10337436 3095.69829996 2270.49023855 3103.97664953 2273.87701416 3112.2550354 C2275.75139515 3116.83666884 2277.62569336 3121.41833614 2279.5 3126 C2280.2499996 3127.8333335 2280.9999996 3129.66666683 2281.75 3131.5 C2318.875 3222.25 2356 3313 2520.25 3714.5 C2520.62123993 3715.40747482 2520.99247986 3716.31494965 2521.37496948 3717.24992371 C2522.12507279 3719.0835107 2522.87517452 3720.91709835 2523.62527466 3722.75068665 C2525.49868104 3727.33014422 2527.37211483 3731.90959057 2529.24560547 3736.48901367 C2532.6396553 3744.78525714 2536.03349685 3753.08158552 2539.42633057 3761.37832642 C2546.94164295 3779.75601784 2554.4608996 3798.13205254 2562 3816.5 C2569.51800981 3834.81656323 2577.01627526 3853.1411713 2584.51022339 3871.46759033 C2587.33861121 3878.38397128 2590.16902279 3885.29952233 2593 3892.21484375 C2594.22856546 3895.21634739 2595.45709434 3898.21786599 2596.68560791 3901.21939087 C2597.46879805 3903.13267451 2598.25211985 3905.04590427 2599.0355835 3906.95907593 C2601.08498747 3911.96370912 2603.13071318 3916.96981032 2605.17224121 3921.97766113 C2605.90581419 3923.76988994 2606.64807279 3925.55855822 2607.39160156 3927.34667969 C2607.75995117 3928.24032227 2608.12830078 3929.13396484 2608.5078125 3930.0546875 C2608.80574707 3930.76866699 2609.10368164 3931.48264648 2609.41064453 3932.21826172 C2610 3934 2610 3934 2610 3937 C2249.64 3937 1889.28 3937 1518 3937 C1511.565 3922.15 1511.565 3922.15 1505 3907 C1502.25259706 3900.68635072 1499.50370747 3894.3733949 1496.75 3888.0625 C1496.03446812 3886.42189117 1495.31897455 3884.78126564 1494.60351562 3883.140625 C1493.13230591 3879.76702682 1491.66093958 3876.39349701 1490.18945312 3873.02001953 C1486.97779907 3865.65673688 1483.76819653 3858.29256004 1480.55847168 3850.92843628 C1478.78906824 3846.86891954 1477.01952704 3842.80946286 1475.25 3838.75 C1474.54166601 3837.12500029 1473.83333268 3835.50000029 1473.125 3833.875 C1472.774375 3833.070625 1472.42375 3832.26625 1472.0625 3831.4375 C1437 3751 1401.9375 3670.5625 1297.81268311 3431.68791199 C1297.10374731 3430.06153526 1296.39480361 3428.43516197 1295.68585205 3426.80879211 C1293.92417187 3422.76738416 1292.16262525 3418.7259181 1290.40136719 3414.68432617 C1287.10501287 3407.12050532 1283.80733088 3399.55727143 1280.50512695 3391.9960022 C1278.95823643 3388.4537721 1277.41207511 3384.91122392 1275.8659668 3381.36865234 C1275.13407066 3379.6922243 1274.40182369 3378.01594936 1273.66918945 3376.33984375 C1272.64833982 3374.00430308 1271.62874151 3371.66821955 1270.609375 3369.33203125 C1270.31734192 3368.66480545 1270.02530884 3367.99757965 1269.72442627 3367.31013489 C1267.90361879 3363.13324307 1266.13413831 3358.93674548 1264.3838501 3354.7297821 C1263.93655674 3353.65504481 1263.48926338 3352.58030752 1263.02841568 3351.47300243 C1262.51934992 3350.24886623 1262.51934992 3350.24886623 1262 3349 C1261.38199156 3356.85156194 1260.76399172 3364.70312455 1260.14599609 3372.5546875 C1259.99859586 3374.42738638 1259.99859586 3374.42738638 1259.84821784 3376.33791757 C1258.59481469 3392.26228848 1257.34149366 3408.18666586 1256.08830261 3424.11105347 C1255.96497011 3425.6782409 1255.84163751 3427.24542833 1255.71830481 3428.81261575 C1255.6566667 3429.59585077 1255.5950286 3430.37908578 1255.53152267 3431.18605519 C1255.40588866 3432.78248503 1255.28025461 3434.37891487 1255.15462052 3435.97534471 C1254.83313749 3440.06042401 1254.51165561 3444.14550339 1254.19017589 3448.23058295 C1252.713619 3466.99328717 1251.23684028 3485.75597388 1249.75949097 3504.51861572 C1248.10626326 3525.51498911 1246.45332764 3546.51138548 1244.80078125 3567.5078125 C1244.73104449 3568.39383504 1244.66130772 3569.27985758 1244.58945772 3570.19272929 C1240.6215386 3620.60638643 1236.66419395 3671.02085882 1232.72079277 3721.43643975 C1231.81523219 3733.01360025 1230.90902611 3744.59071008 1230.00238037 3756.16778564 C1229.87558284 3757.7869354 1229.74878548 3759.40608516 1229.6219883 3761.02523494 C1229.12162833 3767.41453821 1228.62125296 3773.80384027 1228.12079334 3780.19313574 C1226.72133448 3798.0600325 1225.32374426 3815.92707245 1223.93024718 3833.79443525 C1222.96270483 3846.19971111 1221.99254378 3858.60477984 1221.01967198 3871.00963891 C1220.49421747 3877.71069551 1219.97015118 3884.41185408 1219.44939232 3891.11327744 C1218.97466947 3897.22219252 1218.49652568 3903.33082946 1218.01556706 3909.43925667 C1217.84180405 3911.65418425 1217.66934811 3913.86921482 1217.4982841 3916.08435249 C1217.2669897 3919.07709948 1217.03108809 3922.06944748 1216.79396057 3925.06173706 C1216.72764677 3925.93437506 1216.66133296 3926.80701305 1216.59300965 3927.70609462 C1216.32988063 3930.97632331 1216.04178796 3933.87463612 1215 3937 C814.05 3937 413.1 3937 0 3937 C0 2637.79 0 1338.58 0 0 Z " fill="#6A1B99" transform="translate(778,115)"/>
<path d="M0 0 C1415.64057046 0 1415.64057046 0 1488.6875 8.3125 C1489.96225189 8.45584778 1491.23700378 8.59919556 1492.55038452 8.74688721 C1584.31451451 19.09018064 1675.10388002 36.39946808 1763 65 C1763.72537964 65.23527405 1764.45075928 65.4705481 1765.19812012 65.71295166 C1809.85256199 80.22146173 1852.81846596 98.76246828 1894.8125 119.6875 C1895.84983276 120.20294373 1896.88716553 120.71838745 1897.95593262 121.24945068 C1912.09118453 128.29013631 1925.90975858 135.77105073 1939.60501099 143.63143921 C1942.65448413 145.37398974 1945.7234431 147.07668961 1948.80078125 148.76953125 C1963.82805332 157.05499451 1978.4644656 165.88261323 1993 175 C1993.93376465 175.58217285 1994.8675293 176.1643457 1995.82958984 176.76416016 C2030.07727593 198.1312157 2063.18815412 221.43314845 2094.92480469 246.37011719 C2096.897624 247.91959268 2098.87396301 249.46444511 2100.8515625 251.0078125 C2110.79299751 258.77572466 2120.55584954 266.73983911 2130.16430664 274.91625977 C2133.56944129 277.80893451 2137.01725775 280.63814467 2140.5 283.4375 C2145.88142204 287.81334245 2150.93998569 292.49308815 2156.0078125 297.22265625 C2158.32240262 299.38077719 2160.66895746 301.4917381 2163.0625 303.5625 C2168.48024363 308.25937961 2173.73517033 313.13357968 2179 318 C2179.56689041 318.52332413 2180.13378082 319.04664825 2180.71784973 319.58583069 C2191.25271854 329.32962955 2201.49735239 339.34033369 2211.63061523 349.50024414 C2214.08787782 351.96293387 2216.55053317 354.42014202 2219.01367188 356.87695312 C2220.60448787 358.468429 2222.19499413 360.06021454 2223.78515625 361.65234375 C2224.50816422 362.37332748 2225.23117218 363.09431122 2225.97608948 363.83714294 C2229.97054844 367.84988719 2233.78631104 371.96156411 2237.48460388 376.24879456 C2239.25072294 378.28973769 2241.07754641 380.26315328 2242.9375 382.21875 C2243.60523437 382.92386719 2244.27296875 383.62898438 2244.9609375 384.35546875 C2245.63382813 385.06316406 2246.30671875 385.77085937 2247 386.5 C2252.12949517 391.89481389 2257.14257924 397.35846729 2262 403 C2262.73162354 403.84836426 2262.73162354 403.84836426 2263.47802734 404.71386719 C2264.88406073 406.34847238 2266.28646558 407.9861088 2267.6875 409.625 C2268.72779139 410.84120844 2269.76815823 412.05735236 2270.80859375 413.2734375 C2271.33437012 413.88799805 2271.86014648 414.50255859 2272.40185547 415.13574219 C2273.98430606 416.9816928 2275.57146204 418.8234841 2277.16015625 420.6640625 C2282.91465912 427.33697173 2288.55959214 434.0663516 2294 441 C2295.20849609 442.53140625 2295.20849609 442.53140625 2296.44140625 444.09375 C2298.78322382 447.06355312 2301.11683093 450.03970724 2303.44775391 453.01806641 C2304.50878272 454.37280562 2305.57101312 455.72660438 2306.63427734 457.07958984 C2319.94012261 474.0146515 2332.7069778 491.31621823 2345 509 C2345.49790039 509.71526855 2345.99580078 510.43053711 2346.50878906 511.16748047 C2398.96992853 586.71219087 2443.40423561 668.33653386 2477 754 C2477.25463013 754.64829773 2477.50926025 755.29659546 2477.77160645 755.96453857 C2513.49373789 847.04206879 2539.03474698 942.16588966 2562 1152 C2562.05929688 1153.24120605 2562.11859375 1154.48241211 2562.1796875 1155.76123047 C2566.91238823 1259.89473187 2557.64801701 1364.85443023 2421 1782 C2420.15646973 1783.55557617 2420.15646973 1783.55557617 2419.29589844 1785.14257812 C2401.19976841 1818.45612361 2381.82211803 1850.87279708 2360.8125 1882.4375 C2360.31475067 1883.18605255 2359.81700134 1883.9346051 2359.3041687 1884.70584106 C2352.04988252 1895.60112325 2344.59462252 1906.33957393 2337 1917 C2336.36070557 1917.90145752 2335.72141113 1918.80291504 2335.06274414 1919.73168945 C2328.10415294 1929.52855474 2320.89824527 1939.10060134 2313.4765625 1948.55078125 C2310.61104117 1952.20268099 2307.80029677 1955.89269517 2305.00292969 1959.59692383 C2299.49116772 1966.8867002 2293.76693136 1973.91363522 2287.765625 1980.8046875 C2285.28378117 1983.65591412 2282.88031819 1986.5631326 2280.5 1989.5 C2272.6875808 1999.10659142 2264.58488293 2008.44657311 2256.21484375 2017.5703125 C2254.35993183 2019.60515415 2252.54571202 2021.66321247 2250.75 2023.75 C2245.63062835 2029.63310076 2240.24758868 2035.27803597 2234.90917969 2040.96142578 C2233.0703748 2042.92485555 2231.24109876 2044.89671585 2229.4140625 2046.87109375 C2221.12059571 2055.80124853 2212.6072476 2064.49871016 2204 2073.125 C2203.46329681 2073.66429138 2202.92659363 2074.20358276 2202.37362671 2074.75921631 C2196.94402875 2080.20950578 2191.49176115 2085.57425041 2185.640625 2090.57763672 C2183.48309582 2092.44813746 2181.48762624 2094.45121603 2179.5 2096.5 C2176.21145472 2099.82769463 2172.83618376 2102.95336441 2169.28515625 2105.99609375 C2166.93513231 2108.05688398 2164.64949784 2110.17489502 2162.36547852 2112.30810547 C2156.93854308 2117.37577194 2151.40567342 2122.20311324 2145.61328125 2126.85546875 C2143.00152377 2128.99874956 2140.49634698 2131.2238033 2138 2133.5 C2132.8249007 2138.20463572 2127.43858803 2142.60518139 2122 2147 C2120.78057483 2147.99917657 2119.56186423 2148.99922565 2118.34375 2150 C2109.41754271 2157.31937847 2100.3366934 2164.40379881 2091.13671875 2171.375 C2089.01140946 2172.99132297 2086.89500559 2174.61860422 2084.78125 2176.25 C2074.67001523 2184.04724999 2064.40087888 2191.59415016 2054 2199 C2053.26571777 2199.52609863 2052.53143555 2200.05219727 2051.77490234 2200.59423828 C2021.27000591 2222.42349145 1989.46360566 2242.6059556 1956.95458984 2261.29931641 C1953.93039078 2263.04006758 1950.91223582 2264.79098731 1947.89453125 2266.54296875 C1945.97163939 2267.65413956 1944.04847394 2268.76483709 1942.125 2269.875 C1941.23272705 2270.39344482 1940.3404541 2270.91188965 1939.42114258 2271.44604492 C1938.60411865 2271.91502197 1937.78709473 2272.38399902 1936.9453125 2272.8671875 C1936.22875488 2273.28081543 1935.51219727 2273.69444336 1934.77392578 2274.12060547 C1933 2275 1933 2275 1931 2275 C1931.22848633 2275.53101318 1931.45697266 2276.06202637 1931.69238281 2276.60913086 C1940.78106014 2297.79189597 1949.43821511 2319.15031367 1958.12945557 2340.49829102 C1962.44934533 2351.10792581 1966.78564408 2361.71081524 1971.125 2372.3125 C1971.86663687 2374.12482945 1972.60825471 2375.93716669 1973.34985352 2377.74951172 C1974.82722315 2381.35989932 1976.30469017 2384.97024705 1977.78222656 2388.58056641 C1981.1466525 2396.80168901 1984.50975987 2405.02335104 1987.87298584 2413.2449646 C1989.74860504 2417.82999775 1991.62430662 2422.41499719 1993.5 2427 C1994.2500004 2428.83333317 1995.0000004 2430.6666665 1995.75 2432.5 C1996.306875 2433.86125 1996.306875 2433.86125 1996.875 2435.25 C2034 2526 2071.125 2616.75 2198.25 2927.5 C2198.62123993 2928.40747482 2198.99247986 2929.31494965 2199.37496948 2930.24992371 C2200.12507279 2932.0835107 2200.87517452 2933.91709835 2201.62527466 2935.75068665 C2203.49868104 2940.33014422 2205.37211483 2944.90959057 2207.24560547 2949.48901367 C2210.6396553 2957.78525714 2214.03349685 2966.08158552 2217.42633057 2974.37832642 C2224.94164295 2992.75601784 2232.4608996 3011.13205254 2240 3029.5 C2247.92167638 3048.80003952 2255.82110849 3068.10914944 2263.71777344 3087.41943359 C2267.10337436 3095.69829996 2270.49023855 3103.97664953 2273.87701416 3112.2550354 C2275.75139515 3116.83666884 2277.62569336 3121.41833614 2279.5 3126 C2280.2499996 3127.8333335 2280.9999996 3129.66666683 2281.75 3131.5 C2318.875 3222.25 2356 3313 2520.25 3714.5 C2520.62123993 3715.40747482 2520.99247986 3716.31494965 2521.37496948 3717.24992371 C2522.12507279 3719.0835107 2522.87517452 3720.91709835 2523.62527466 3722.75068665 C2525.49868104 3727.33014422 2527.37211483 3731.90959057 2529.24560547 3736.48901367 C2532.6396553 3744.78525714 2536.03349685 3753.08158552 2539.42633057 3761.37832642 C2546.94164295 3779.75601784 2554.4608996 3798.13205254 2562 3816.5 C2569.51800981 3834.81656323 2577.01627526 3853.1411713 2584.51022339 3871.46759033 C2587.33861121 3878.38397128 2590.16902279 3885.29952233 2593 3892.21484375 C2594.22856546 3895.21634739 2595.45709434 3898.21786599 2596.68560791 3901.21939087 C2597.46879805 3903.13267451 2598.25211985 3905.04590427 2599.0355835 3906.95907593 C2601.08498747 3911.96370912 2603.13071318 3916.96981032 2605.17224121 3921.97766113 C2605.90581419 3923.76988994 2606.64807279 3925.55855822 2607.39160156 3927.34667969 C2607.75995117 3928.24032227 2608.12830078 3929.13396484 2608.5078125 3930.0546875 C2608.80574707 3930.76866699 2609.10368164 3931.48264648 2609.41064453 3932.21826172 C2610 3934 2610 3934 2610 3937 C2249.64 3937 1889.28 3937 1518 3937 C1511.565 3922.15 1511.565 3922.15 1505 3907 C1502.25259706 3900.68635072 1499.50370747 3894.3733949 1496.75 3888.0625 C1496.03446812 3886.42189117 1495.31897455 3884.78126564 1494.60351562 3883.140625 C1493.13230591 3879.76702682 1491.66093958 3876.39349701 1490.18945312 3873.02001953 C1486.97779907 3865.65673688 1483.76819653 3858.29256004 1480.55847168 3850.92843628 C1478.78906824 3846.86891954 1477.01952704 3842.80946286 1475.25 3838.75 C1474.54166601 3837.12500029 1473.83333268 3835.50000029 1473.125 3833.875 C1472.774375 3833.070625 1472.42375 3832.26625 1472.0625 3831.4375 C1437 3751 1401.9375 3670.5625 1297.81268311 3431.68791199 C1297.10374731 3430.06153526 1296.39480361 3428.43516197 1295.68585205 3426.80879211 C1293.92417187 3422.76738416 1292.16262525 3418.7259181 1290.40136719 3414.68432617 C1287.10501287 3407.12050532 1283.80733088 3399.55727143 1280.50512695 3391.9960022 C1278.95823643 3388.4537721 1277.41207511 3384.91122392 1275.8659668 3381.36865234 C1275.13407066 3379.6922243 1274.40182369 3378.01594936 1273.66918945 3376.33984375 C1272.64833982 3374.00430308 1271.62874151 3371.66821955 1270.609375 3369.33203125 C1270.31734192 3368.66480545 1270.02530884 3367.99757965 1269.72442627 3367.31013489 C1267.90361879 3363.13324307 1266.13413831 3358.93674548 1264.3838501 3354.7297821 C1263.93655674 3353.65504481 1263.48926338 3352.58030752 1263.02841568 3351.47300243 C1262.51934992 3350.24886623 1262.51934992 3350.24886623 1262 3349 C1261.38199156 3356.85156194 1260.76399172 3364.70312455 1260.14599609 3372.5546875 C1259.99859586 3374.42738638 1259.99859586 3374.42738638 1259.84821784 3376.33791757 C1258.59481469 3392.26228848 1257.34149366 3408.18666586 1256.08830261 3424.11105347 C1255.96497011 3425.6782409 1255.84163751 3427.24542833 1255.71830481 3428.81261575 C1255.6566667 3429.59585077 1255.5950286 3430.37908578 1255.53152267 3431.18605519 C1255.40588866 3432.78248503 1255.28025461 3434.37891487 1255.15462052 3435.97534471 C1254.83313749 3440.06042401 1254.51165561 3444.14550339 1254.19017589 3448.23058295 C1252.713619 3466.99328717 1251.23684028 3485.75597388 1249.75949097 3504.51861572 C1248.10626326 3525.51498911 1246.45332764 3546.51138548 1244.80078125 3567.5078125 C1244.73104449 3568.39383504 1244.66130772 3569.27985758 1244.58945772 3570.19272929 C1240.6215386 3620.60638643 1236.66419395 3671.02085882 1232.72079277 3721.43643975 C1231.81523219 3733.01360025 1230.90902611 3744.59071008 1230.00238037 3756.16778564 C1229.87558284 3757.7869354 1229.74878548 3759.40608516 1229.6219883 3761.02523494 C1229.12162833 3767.41453821 1228.62125296 3773.80384027 1228.12079334 3780.19313574 C1226.72133448 3798.0600325 1225.32374426 3815.92707245 1223.93024718 3833.79443525 C1222.96270483 3846.19971111 1221.99254378 3858.60477984 1221.01967198 3871.00963891 C1220.49421747 3877.71069551 1219.97015118 3884.41185408 1219.44939232 3891.11327744 C1218.97466947 3897.22219252 1218.49652568 3903.33082946 1218.01556706 3909.43925667 C1217.84180405 3911.65418425 1217.66934811 3913.86921482 1217.4982841 3916.08435249 C1217.2669897 3919.07709948 1217.03108809 3922.06944748 1216.79396057 3925.06173706 C1216.72764677 3925.93437506 1216.66133296 3926.80701305 1216.59300965 3927.70609462 C1216.32988063 3930.97632331 1216.04178796 3933.87463612 1215 3937 C814.05 3937 413.1 3937 0 3937 C0 2637.79 0 1338.58 0 0 Z M92 92 C92 1330.49 92 2568.98 92 3845 C423.98 3845 755.96 3845 1098 3845 C1098.05177388 3837.4568089 1098.05177388 3837.4568089 1097.69628906 3829.99243164 C1097.62895569 3829.13467133 1097.56162231 3828.27691101 1097.49224854 3827.39315796 C1097.41746277 3826.4912674 1097.342677 3825.58937683 1097.265625 3824.66015625 C1097.18777771 3823.68188873 1097.10993042 3822.70362122 1097.02972412 3821.69570923 C1096.77339397 3818.48434142 1096.51162668 3815.27344025 1096.25 3812.0625 C1096.06727733 3809.78169139 1095.88499376 3807.50084756 1095.703125 3805.2199707 C1095.32534989 3800.48732248 1094.945699 3795.75483082 1094.56445312 3791.02246094 C1093.69699289 3780.24513793 1092.84705973 3769.46644285 1092 3758.6875 C1091.91819489 3757.64849548 1091.83638977 3756.60949097 1091.75210571 3755.53900146 C1090.34126209 3737.60397407 1089.0022633 3719.6640484 1087.68261719 3701.72210693 C1086.37518696 3683.95348651 1085.01165037 3666.19041199 1083.59191895 3648.43045044 C1082.82350952 3638.8096634 1082.07101885 3629.18762731 1081.31738281 3619.56567383 C1081.06210312 3616.30743444 1080.80648916 3613.04922143 1080.55078125 3609.79101562 C1079.77950568 3599.96134493 1079.00956596 3590.13157618 1078.24545288 3580.30134583 C1077.83112256 3574.97166651 1077.41581299 3569.64206384 1077 3564.3125 C1076.9172583 3563.25165192 1076.8345166 3562.19080383 1076.74926758 3561.09780884 C1075.64962064 3547.02187387 1074.4994535 3532.95109139 1073.30685425 3518.88275146 C1073.22621735 3517.93144348 1073.14558044 3516.9801355 1073.0625 3516 C1072.98194366 3515.04998108 1072.90138733 3514.09996216 1072.81838989 3513.12115479 C1071.1672257 3493.58138802 1069.71617837 3474.02784753 1068.27411652 3454.47183228 C1066.973294 3436.83482016 1065.64974355 3419.20313948 1064.09130859 3401.58666992 C1063.0024309 3389.23057321 1062.02675621 3376.86639905 1061.0625 3364.5 C1060.9781369 3363.41831543 1060.8937738 3362.33663086 1060.80685425 3361.22216797 C1060.3758578 3355.69244096 1059.94578849 3350.16264231 1059.51611328 3344.6328125 C1058.76554857 3334.97860092 1058.00706427 3325.32501119 1057.24899292 3315.67138672 C1056.83232004 3310.36428463 1056.41618804 3305.05714013 1056 3299.75 C1055.83333591 3297.6249998 1055.66666924 3295.4999998 1055.5 3293.375 C1042.50000001 3127.62500014 1042.50000001 3127.62500014 1042.25 3124.43745422 C1042.08334285 3122.31260607 1041.91667618 3120.18775865 1041.75 3118.06291199 C1041.33310969 3112.74809489 1040.91638508 3107.4332649 1040.5 3102.1184082 C1039.75284872 3092.58361056 1039.00458171 3083.04890829 1038.25001526 3073.51469421 C1036.33014781 3049.25499844 1034.46769811 3024.9921116 1032.68261719 3000.72210693 C1031.37551779 2982.9579826 1030.01243318 2965.19942185 1028.59191895 2947.44404602 C1028.07491744 2940.96986398 1027.56962863 2934.49479741 1027.06640625 2928.01953125 C1025.53219535 2908.29821377 1023.9775532 2888.57984357 1022.30584717 2868.86965942 C1022.2255426 2867.92267181 1022.14523804 2866.9756842 1022.0625 2866 C1021.94180145 2864.57673904 1021.94180145 2864.57673904 1021.81866455 2863.12472534 C1020.1674199 2843.5837674 1018.71626615 2824.02903801 1017.27411652 2804.47183228 C1015.973294 2786.83482016 1014.64974355 2769.20313948 1013.09130859 2751.58666992 C1012.0024309 2739.23057321 1011.02675621 2726.86639905 1010.0625 2714.5 C1009.9781369 2713.41831543 1009.8937738 2712.33663086 1009.80685425 2711.22216797 C1009.3758578 2705.69244096 1008.94578849 2700.16264231 1008.51611328 2694.6328125 C1007.76554857 2684.97860092 1007.00706427 2675.32501119 1006.24899292 2665.67138672 C1005.83232004 2660.36428463 1005.41618804 2655.05714013 1005 2649.75 C1004.83333591 2647.6249998 1004.66666924 2645.4999998 1004.5 2643.375 C1003.5 2630.62500003 1003.5 2630.62500003 1003.24998474 2627.43727112 C1003.08337607 2625.3130335 1002.91676027 2623.18879644 1002.75013733 2621.06455994 C1002.33252467 2615.7404001 1001.91503735 2610.41623049 1001.49780273 2605.09204102 C1000.75923359 2595.66891897 1000.01999167 2586.24585405 999.27571106 2576.82318115 C998.95213002 2572.72608897 998.62910925 2568.62895277 998.30630493 2564.53179932 C998.14446006 2562.47771255 997.98249414 2560.42363531 997.82040405 2558.36956787 C996.80158121 2545.44575092 995.80935401 2532.52013394 994.84369087 2519.59224892 C994.67260249 2517.30270414 994.50114611 2515.01318721 994.32957458 2512.72367859 C994.21572064 2511.20388855 994.1018748 2509.6840979 993.98803711 2508.16430664 C993.93183669 2507.41405684 993.87563627 2506.66380705 993.81773281 2505.89082241 C993.4830554 2501.41838501 993.15138472 2496.94573639 992.82185936 2492.4729166 C992.61581737 2489.68440172 992.40725719 2486.89607905 992.19808197 2484.10779762 C992.05437897 2482.18105013 991.91389732 2480.25406323 991.77349854 2478.32707214 C991.68622498 2477.16871353 991.59895142 2476.01035492 991.5090332 2474.81689453 C991.43449417 2473.80934113 991.35995514 2472.80178772 991.28315735 2471.76370239 C991.00419007 2468.6086257 991.00419007 2468.6086257 990 2464 C1102.2 2464 1214.4 2464 1330 2464 C1326.80920899 2504.94848467 1323.60810326 2545.88233683 1320.22265625 2586.8125 C1318.72822804 2605.0349953 1317.39557484 2623.26959552 1316.05245972 2641.50372314 C1314.85425763 2657.76626172 1313.61570146 2674.0208225 1312.16357422 2690.26293945 C1310.78017683 2705.93303011 1309.66101046 2721.62471435 1308.5 2737.3125 C1308.44516071 2738.05329803 1308.39032143 2738.79409607 1308.33382034 2739.55734253 C1308.22343127 2741.04855107 1308.11304886 2742.53976009 1308.00267315 2744.03096962 C1307.7323249 2747.68341232 1307.46190811 2751.33584993 1307.19140625 2754.98828125 C1307.13877687 2755.69912495 1307.0861475 2756.40996864 1307.03192329 2757.14235306 C1306.19575235 2768.43054461 1305.3375974 2779.71672135 1304.4375 2791 C1304.38044891 2791.71544983 1304.32339783 2792.43089966 1304.26461792 2793.16802979 C1304.03221693 2796.07986544 1303.79949293 2798.99167497 1303.5662384 2801.90344238 C1302.80553643 2811.4081978 1302.06290409 2820.91437569 1301.31838989 2830.42041016 C1300.97690486 2834.78034118 1300.6350872 2839.1402461 1300.29328918 2843.50015259 C1300.03419157 2846.80527445 1299.77514812 2850.11040056 1299.51611328 2853.41552734 C1298.76080524 2863.05224685 1298.00488139 2872.68891805 1297.24899292 2882.32559204 C1296.83263567 2887.63372597 1296.41631998 2892.94186315 1296 2898.25 C1295.83333353 2900.37500002 1295.66666686 2902.50000002 1295.5 2904.625 C1295.4175 2905.676875 1295.335 2906.72875 1295.25 2907.8125 C1286.5 3019.37500001 1286.5 3019.37500001 1286.25003052 3022.56210327 C1286.08326054 3024.68842558 1285.91649215 3026.814748 1285.74972534 3028.94107056 C1285.33465231 3034.23334032 1284.91955225 3039.52560797 1284.50439453 3044.81787109 C1283.73542116 3054.62079173 1282.96669405 3064.42373146 1282.19891357 3074.22674561 C1281.84316215 3078.76876628 1281.4872599 3083.31077513 1281.13134766 3087.8527832 C1280.96460642 3089.98119533 1280.79793594 3092.109613 1280.63134766 3094.23803711 C1280.47453763 3096.24148733 1280.31757763 3098.24492582 1280.16046143 3100.24835205 C1280.00741914 3102.20268704 1279.85502771 3104.15707311 1279.70330811 3106.11151123 C1279.30182896 3111.26079598 1278.88219034 3116.40788209 1278.43847656 3121.55371094 C1277.98613906 3126.81700225 1277.5771034 3132.08196103 1277.20095825 3137.35122681 C1277.03195286 3139.57883847 1276.82140113 3141.7960566 1276.59545898 3144.01831055 C1275.8997791 3154.81428982 1280.45678668 3163.40305939 1284.9375 3172.9375 C1285.76251236 3174.74464255 1286.5846444 3176.55310251 1287.40405273 3178.36279297 C1289.09332576 3182.08866159 1290.79400005 3185.8089879 1292.50292969 3189.52587891 C1295.9481234 3197.04548232 1299.23735659 3204.63169449 1302.52200317 3212.22244263 C1304.26970678 3216.25797458 1306.02820083 3220.28880228 1307.78515625 3224.3203125 C1308.48719642 3225.93259346 1309.18918212 3227.54489814 1309.89111328 3229.15722656 C1313.07060405 3236.45931643 1316.25370109 3243.75983439 1319.43649292 3251.06048584 C1321.20780649 3255.12359422 1322.9788918 3259.18680209 1324.75 3263.25 C1325.45833224 3264.87500048 1326.16666557 3266.50000048 1326.875 3268.125 C1361.9375 3348.5625 1397 3429 1535.125 3745.875 C1535.65089218 3747.08145676 1535.65089218 3747.08145676 1536.18740845 3748.31228638 C1536.89605046 3749.93799693 1537.60468897 3751.563709 1538.31332397 3753.18942261 C1540.07940576 3757.24106374 1541.84554765 3761.29267865 1543.61181641 3765.34423828 C1547.22954726 3773.64296411 1550.84615465 3781.94217712 1554.4609375 3790.2421875 C1558.32306265 3799.10971739 1562.18841909 3807.9758327 1566.05749512 3816.84033203 C1566.96996439 3818.93117601 1567.88197505 3821.02221958 1568.79394531 3823.11328125 C1570.35948146 3826.70190136 1571.92928967 3830.28864129 1573.5 3833.875 C1573.95101074 3834.90931152 1574.40202148 3835.94362305 1574.86669922 3837.00927734 C1575.27162598 3837.9317627 1575.67655273 3838.85424805 1576.09375 3839.8046875 C1576.61485352 3840.99553955 1576.61485352 3840.99553955 1577.14648438 3842.21044922 C1577.86780707 3843.97908408 1577.86780707 3843.97908408 1579 3845 C1580.95229298 3845.09817742 1582.9082047 3845.12447155 1584.86296469 3845.1241985 C1586.14812038 3845.12644579 1587.43327607 3845.12869308 1588.75737587 3845.13100848 C1590.20511557 3845.12844216 1591.65285513 3845.12578522 1593.10059452 3845.12304783 C1594.62811831 3845.12378656 1596.15564195 3845.12496417 1597.6831651 3845.12654433 C1601.91973742 3845.12963414 1606.15628602 3845.12642113 1610.39285658 3845.12226619 C1614.98710301 3845.11884958 1619.58134689 3845.12119941 1624.17559379 3845.12284368 C1632.240465 3845.1249236 1640.30532885 3845.12326316 1648.3701992 3845.11920547 C1660.36250425 3845.11318846 1672.35480462 3845.11286799 1684.3471109 3845.11374746 C1704.51676901 3845.11506367 1724.68642385 3845.11171124 1744.85608101 3845.10573006 C1764.83664529 3845.09982009 1784.81720821 3845.09596554 1804.79777336 3845.09487724 C1806.6588408 3845.09477413 1806.6588408 3845.09477413 1808.55750557 3845.09466894 C1814.85803681 3845.09433062 1821.15856804 3845.09402923 1827.45909929 3845.09374207 C1872.1262982 3845.0916397 1916.79349551 3845.08489769 1961.46069336 3845.07543945 C1972.29268391 3845.07314784 1983.12467447 3845.07087249 1993.95666504 3845.06866455 C1994.62844655 3845.0685276 1995.30022806 3845.06839065 1995.99236658 3845.06824955 C2027.20926733 3845.06190799 2058.42616824 3845.0581807 2089.64306946 3845.05512976 C2091.66915961 3845.05493169 2093.69524976 3845.0547325 2095.7213399 3845.05453308 C2109.14810321 3845.05321332 2122.57486652 3845.05193867 2136.00162984 3845.05069422 C2163.35532954 3845.04815777 2190.70902922 3845.04533651 2218.06272888 3845.04234314 C2219.32050418 3845.04220585 2220.57827947 3845.04206856 2221.87416917 3845.04192711 C2305.91611352 3845.03272102 2389.95805688 3845.0168752 2474 3845 C2473.04398503 3842.44101894 2472.08711706 3839.88236227 2471.12976074 3837.32388306 C2470.86098492 3836.60417863 2470.59220909 3835.8844742 2470.31528854 3835.14296055 C2468.31887334 3829.81055196 2466.2295204 3824.52607458 2464.03125 3819.2734375 C2463.50155861 3817.9972052 2463.50155861 3817.9972052 2462.96116638 3816.69519043 C2462.20394925 3814.87102799 2461.44562345 3813.0473254 2460.68624878 3811.22406006 C2458.58749827 3806.18340893 2456.49886902 3801.13856705 2454.41015625 3796.09375 C2453.97079239 3795.03284149 2453.53142853 3793.97193298 2453.07875061 3792.87887573 C2447.9838048 3780.56376834 2442.95919042 3768.22011721 2437.9375 3755.875 C2437.00294749 3753.57811775 2436.06837719 3751.28124275 2435.13378906 3748.984375 C2432.35947123 3742.16608786 2432.35947123 3742.16608786 2430.98147583 3738.77905273 C2426.58392098 3727.97240414 2422.16970646 3717.17260484 2417.75 3706.375 C2417.38574921 3705.48504333 2417.02149841 3704.59508667 2416.64620972 3703.67816162 C2414.82622886 3699.23163183 2413.00596734 3694.78521702 2411.18554688 3690.33886719 C2407.83166681 3682.14663357 2404.48048184 3673.95329733 2401.12902832 3665.7600708 C2399.25278974 3661.17333791 2397.37638676 3656.58667227 2395.5 3652 C2394.74999921 3650.16666699 2393.99999921 3648.33333366 2393.25 3646.5 C2392.87875 3645.5925 2392.5075 3644.685 2392.125 3643.75 C2355 3553 2317.875 3462.25 2190.75 3151.5 C2190.37876007 3150.59252518 2190.00752014 3149.68505035 2189.62503052 3148.75007629 C2188.87492721 3146.9164893 2188.12482548 3145.08290165 2187.37472534 3143.24931335 C2185.50131896 3138.66985578 2183.62788517 3134.09040943 2181.75439453 3129.51098633 C2178.3603447 3121.21474286 2174.96650315 3112.91841448 2171.57366943 3104.62167358 C2164.05835705 3086.24398216 2156.5391004 3067.86794746 2149 3049.5 C2141.07832362 3030.19996048 2133.17889151 3010.89085056 2125.28222656 2991.58056641 C2121.89662564 2983.30170004 2118.50976145 2975.02335047 2115.12298584 2966.7449646 C2113.24860485 2962.16333116 2111.37430664 2957.58166386 2109.5 2953 C2108.7500004 2951.1666665 2108.0000004 2949.33333317 2107.25 2947.5 C2051.5625 2811.375 2051.5625 2811.375 1886.75 2408.5 C1886.37876007 2407.59252518 1886.00752014 2406.68505035 1885.62503052 2405.75007629 C1884.87492721 2403.9164893 1884.12482548 2402.08290165 1883.37472534 2400.24931335 C1881.50131896 2395.66985578 1879.62788517 2391.09040943 1877.75439453 2386.51098633 C1874.3603447 2378.21474286 1870.96650315 2369.91841448 1867.57366943 2361.62167358 C1859.41496942 2341.67066376 1851.25163907 2321.72159801 1843.06274414 2301.78295898 C1839.4223891 2292.91720958 1835.79363311 2284.04683265 1832.17578125 2275.171875 C1830.95265686 2272.17370532 1829.72939233 2269.17559284 1828.50610352 2266.17749023 C1827.72111928 2264.25219958 1826.9369171 2262.32658985 1826.15356445 2260.40063477 C1820.33955678 2246.0866759 1820.33955678 2246.0866759 1814 2232 C1814.84731689 2231.73896484 1815.69463379 2231.47792969 1816.56762695 2231.20898438 C1820.16644455 2229.94137326 1823.52109687 2228.37459679 1826.91796875 2226.65625 C1827.56798355 2226.33124008 1828.21799835 2226.00623016 1828.88771057 2225.67137146 C1830.98983899 2224.61856328 1833.08880649 2223.55963681 1835.1875 2222.5 C1836.64936801 2221.76496375 1838.11128237 2221.03001966 1839.57324219 2220.29516602 C1849.24750594 2215.42444997 1858.88253093 2210.48773009 1868.43017578 2205.37255859 C1871.45750063 2203.75564616 1874.49255823 2202.15364561 1877.52734375 2200.55078125 C1892.90867746 2192.40215951 1908.0493706 2183.91974566 1923 2175 C1924.59884033 2174.05398926 1924.59884033 2174.05398926 1926.22998047 2173.08886719 C1944.70472206 2162.14548938 1962.60620684 2150.44282265 1980.39868164 2138.42675781 C1983.74403647 2136.16894889 1987.10290452 2133.93225667 1990.46484375 2131.69921875 C1995.04165141 2128.65147219 1999.57614054 2125.55423384 2004.0625 2122.375 C2004.76802002 2121.87556885 2005.47354004 2121.3761377 2006.20043945 2120.86157227 C2019.15367882 2111.6562749 2031.9139816 2102.21478382 2044.34375 2092.31347656 C2046.01391997 2090.98896087 2047.6927693 2089.67634284 2049.375 2088.3671875 C2066.32142907 2075.16971171 2082.87358443 2061.43959627 2098.78125 2047.00390625 C2100.79308393 2045.18688018 2102.82660434 2043.40055608 2104.875 2041.625 C2109.21178418 2037.84443663 2113.44833057 2033.95679519 2117.67675781 2030.05615234 C2119.69667409 2028.19491763 2121.72456586 2026.34448922 2123.76147461 2024.50170898 C2133.20744024 2015.90612756 2142.24026693 2006.91216679 2151.25878906 1997.87158203 C2153.88753409 1995.23744018 2156.52163178 1992.60873496 2159.15625 1989.98046875 C2160.85188349 1988.28417497 2162.54720703 1986.5875713 2164.2421875 1984.890625 C2165.01835419 1984.11648254 2165.79452087 1983.34234009 2166.59420776 1982.54473877 C2170.70162829 1978.41978216 2174.65390104 1974.21751408 2178.44171143 1969.79640198 C2181.15454382 1966.66903676 2184.02748271 1963.69170269 2186.875 1960.6875 C2191.7652533 1955.49241316 2196.40429718 1950.18647242 2200.859375 1944.609375 C2203.15120465 1941.81568484 2205.55231812 1939.15791222 2208 1936.5 C2212.8936826 1931.1703211 2217.46207844 1925.63303512 2222 1920 C2223.03294233 1918.73493201 2224.06685658 1917.4706572 2225.1015625 1916.20703125 C2231.88468522 1907.91465369 2238.53729041 1899.54563008 2245 1891 C2245.45697266 1890.39752441 2245.91394531 1889.79504883 2246.38476562 1889.17431641 C2286.23917621 1836.57889838 2320.87869557 1780.69444444 2351 1722 C2351.57089355 1720.89221191 2352.14178711 1719.78442383 2352.72998047 1718.64306641 C2386.64517559 1652.62775181 2413.39256109 1581.98478176 2432.16503906 1510.17822266 C2432.94432921 1507.21190711 2433.73799175 1504.24968575 2434.53430176 1501.28790283 C2440.59146908 1478.69650503 2445.55905567 1455.96058585 2450 1433 C2450.12955078 1432.3312384 2450.25910156 1431.66247681 2450.39257812 1430.97344971 C2451.99922143 1422.66133125 2453.54975084 1414.34082245 2455 1406 C2455.14145447 1405.19949219 2455.28290894 1404.39898438 2455.4286499 1403.57421875 C2458.14845583 1388.11626334 2460.30664889 1372.62668956 2462.18261719 1357.04492188 C2462.62557168 1353.37025747 2463.0778181 1349.69682225 2463.53125 1346.0234375 C2465.90198136 1326.65915255 2467.89600311 1307.29799724 2468.95043945 1287.81494141 C2469.06193274 1285.76045298 2469.17993898 1283.7064161 2469.29882812 1281.65234375 C2469.55703201 1277.10269112 2469.78340797 1272.55180759 2470 1268 C2470.04450287 1267.07931732 2470.08900574 1266.15863464 2470.13485718 1265.21005249 C2471.01136363 1246.5787703 2471.2061042 1227.96039034 2471.1875 1209.3125 C2471.18693855 1208.57178757 2471.18637711 1207.83107513 2471.18579865 1207.06791687 C2471.12797971 1145.78272537 2467.26269067 1084.74619963 2457.35931396 1024.21551514 C2456.87101927 1021.20471014 2456.40051206 1018.19123833 2455.93067932 1015.17750549 C2453.61483768 999.74455018 2453.61483768 999.74455018 2450.54980469 984.45117188 C2449.85473524 981.35237202 2449.24126609 978.24042885 2448.625 975.125 C2442.84974396 946.07856852 2436.39098477 917.02114781 2427.80126953 888.66308594 C2426.86893953 885.56440964 2425.96400669 882.45820874 2425.05859375 879.3515625 C2403.51821754 805.90636852 2374.90307396 733.40594914 2337.42236328 666.55957031 C2335.96397253 663.93516787 2334.53837687 661.29524606 2333.12109375 658.6484375 C2325.52865646 644.48943069 2317.39937371 630.69437639 2309 617 C2308.51128418 616.20126465 2308.02256836 615.4025293 2307.51904297 614.57958984 C2293.56991148 591.87923475 2278.68238728 569.53998524 2263 548 C2262.44940918 547.24122559 2261.89881836 546.48245117 2261.33154297 545.70068359 C2254.18630995 535.87131457 2246.8982954 526.1783484 2239.32666016 516.67382812 C2237.96165981 514.95162673 2236.61004984 513.21965176 2235.26171875 511.484375 C2229.86805917 504.5503511 2224.3313022 497.77255484 2218.625 491.09375 C2216.16084036 488.2044868 2213.76339 485.26481542 2211.375 482.3125 C2207.75165505 477.86096192 2203.98036128 473.57617545 2200.1171875 469.33203125 C2198.21948831 467.24176111 2196.35266585 465.13013885 2194.5 463 C2184.1044934 451.08203934 2173.47339162 439.36217781 2162.21875 428.25 C2160.28303731 426.28702375 2158.47189412 424.28678719 2156.6875 422.1875 C2149.80854501 414.16748613 2142.14484147 406.69996074 2134.08984375 399.87109375 C2131.28087746 397.3561501 2128.64912932 394.68145574 2126 392 C2122.17991276 388.13801807 2118.31992805 384.42021888 2114.1796875 380.8984375 C2111.86218354 378.8799663 2109.61760376 376.79621675 2107.37207031 374.69848633 C2101.94354681 369.62793068 2096.4080947 364.79883149 2090.61328125 360.14453125 C2088.00152377 358.00125044 2085.49634698 355.7761967 2083 353.5 C2077.82485184 348.79531985 2072.4379716 344.39563657 2067 340 C2065.76879913 338.98917233 2064.53837382 337.97739951 2063.30859375 336.96484375 C2054.76732384 329.94842242 2046.06691599 323.20435672 2037.18505859 316.62597656 C2034.82992271 314.87343969 2032.48633643 313.10624443 2030.14453125 311.3359375 C2029.30051758 310.69897949 2028.45650391 310.06202148 2027.58691406 309.40576172 C2025.98730937 308.19816847 2024.38885731 306.98904564 2022.79199219 305.77783203 C2008.86327267 295.28877314 1994.43647047 285.50716978 1979.92675781 275.84594727 C1977.26342669 274.07144582 1974.60426792 272.29081492 1971.9453125 270.50976562 C1956.32823373 260.07919146 1940.43837364 250.08487529 1924.25 240.5625 C1922.90832764 239.77238525 1922.90832764 239.77238525 1921.53955078 238.96630859 C1865.27054677 205.98973883 1807.03339041 176.5055808 1745 156 C1743.79794922 155.60071289 1742.59589844 155.20142578 1741.35742188 154.79003906 C1717.34344985 146.84122817 1693.14043786 139.46924953 1668.63037109 133.19482422 C1665.63867144 132.42710905 1662.65245889 131.64250151 1659.67041016 130.83813477 C1648.38477345 127.80125353 1637.05546435 125.11961202 1625.625 122.6875 C1624.73892059 122.49812866 1623.85284119 122.30875732 1622.93991089 122.11364746 C1591.25705991 115.36845398 1559.35380105 109.88634216 1527.25146484 105.57666016 C1523.66520426 105.09359848 1520.08244268 104.58846065 1516.5002594 104.0761261 C1498.39091671 101.48746186 1480.25570455 99.2883854 1462.0625 97.375 C1461.13909821 97.27662842 1460.21569641 97.17825684 1459.26431274 97.0769043 C1006.03850971 49.10142552 547.75791282 92 92 92 Z " fill="#FABF2D" transform="translate(778,115)"/>
<path d="M0 0 C5.84138079 1.64137973 10.90299878 4.46672939 16.1875 7.375 C17.1563916 7.90665771 18.1252832 8.43831543 19.12353516 8.98608398 C46.50270263 24.17362969 72.17439211 42.61556557 96.26318359 62.56738281 C98.76234405 64.62882132 101.29045371 66.65416707 103.8125 68.6875 C108.49997804 72.52334914 112.98169377 76.5548829 117.4375 80.65625 C119.65684276 82.68613667 121.90672034 84.66495498 124.1875 86.625 C127.62325196 89.60591718 130.80604361 92.78735153 133.99609375 96.02734375 C135.95678234 97.9574563 137.97819714 99.76734898 140.0625 101.5625 C145.92644921 106.62473741 151.13262459 112.10029566 156.18359375 117.96484375 C158.05228832 120.05858541 160.00044735 122.03126897 162 124 C165.88025687 127.83582645 169.455071 131.85515994 173 136 C173.90572194 137.04212585 174.81201803 138.08375285 175.71875 139.125 C182.20108849 146.59292612 188.47102717 154.19065879 194.49121094 162.03613281 C195.52947884 163.38756114 196.5720503 164.73569052 197.61816406 166.08105469 C218.80391054 193.36849063 237.14911608 222.6377706 253.43383789 253.07666016 C254.58520391 255.22575707 255.74439036 257.37066888 256.90795898 259.51318359 C293.96207174 327.95240113 314.00130998 404.94077109 328 582 C327.98066406 583.10069824 327.96132812 584.20139648 327.94140625 585.33544922 C327.3283664 615.95588835 324.75420204 646.61228962 321 677 C323.04660276 676.71698537 325.09193982 676.42481038 327.13671875 676.12890625 C328.27584717 675.96720947 329.41497559 675.8055127 330.58862305 675.63891602 C346.91866666 672.58046585 362.441929 661.45515142 375 651 C375.59619141 650.50532227 376.19238281 650.01064453 376.80664062 649.50097656 C382.90762021 644.41256793 388.92621038 639.29424121 394.4375 633.5625 C396.17065598 631.82934402 398.00188648 630.26793953 399.875 628.6875 C403.73650408 625.3502154 407.08065006 621.69537092 410.44921875 617.8671875 C412.86053359 615.15676623 415.32273257 612.5067276 417.80761719 609.86425781 C422.94097654 604.39914067 427.89436258 598.86526369 432.58203125 593.0078125 C434.41211999 590.73128854 436.26139217 588.48093211 438.13671875 586.2421875 C447.15969747 575.44984599 455.65125314 564.31938748 464 553 C464.65162109 552.11795898 465.30324219 551.23591797 465.97460938 550.32714844 C469.52752517 545.5168582 473.07430594 540.70213225 476.61230469 535.88085938 C478.06445282 533.91264171 479.53001298 531.95492 481 530 C484.86674655 531.28891552 485.12161384 532.51896315 487.01171875 536.0625 C487.88848267 537.69614502 487.88848267 537.69614502 488.78295898 539.36279297 C489.41871601 540.57471837 490.05353346 541.78713703 490.6875 543 C491.01469025 543.61989807 491.34188049 544.23979614 491.6789856 544.878479 C528.85581264 615.32432571 556.79038745 690.57992333 581.203125 858.65625 C581.20882507 859.91924927 581.21452515 861.18224854 581.22039795 862.48352051 C581.22978108 865.14578819 581.23671049 867.80794519 581.24023438 870.47021484 C581.24670394 874.43473804 581.28089146 878.39887948 581.3125 882.36328125 C581.45505549 916.9137928 577.42042837 951.4706298 569 985 C568.73703125 986.05815918 568.73703125 986.05815918 568.46875 987.13769531 C566.02838426 996.87532658 563.12974037 1006.46520958 560 1016 C559.75411133 1016.7537793 559.50822266 1017.50755859 559.25488281 1018.28417969 C544.87381687 1061.96869744 522.48838569 1102.01218827 494 1138 C493.26265625 1138.93199219 492.5253125 1139.86398437 491.765625 1140.82421875 C486.98859077 1146.76163186 481.96459704 1152.40737705 476.7734375 1157.98046875 C474.70281288 1160.2090128 472.70727715 1162.49151882 470.72265625 1164.796875 C466.69669036 1169.41589327 462.40466707 1173.74231859 458.0625 1178.0625 C457.30259766 1178.82626953 456.54269531 1179.59003906 455.75976562 1180.37695312 C451.00242065 1185.12617283 446.09883529 1189.62233176 441 1194 C439.84341836 1195.02159087 438.68842501 1196.0449832 437.53515625 1197.0703125 C400.13894257 1230.07358135 357.20928834 1256.09593275 312.83740234 1278.54296875 C311.06642107 1279.45238333 309.30853827 1280.38836475 307.57275391 1281.36328125 C305.45703125 1282.53125 305.45703125 1282.53125 302 1284 C296.36336242 1281.8027107 293.13495758 1277.32150415 290.5390625 1272.01171875 C284.29650087 1257.23525062 285.07079404 1244.80373008 291 1230 C299.43710324 1209.79498023 313.29294277 1194.6778556 330.796875 1181.6640625 C354.03813679 1163.4030711 366.99906889 1129.59098143 377 1103 C377.30276855 1102.20609863 377.60553711 1101.41219727 377.91748047 1100.59423828 C382.13443343 1089.47907588 385.29267012 1078.12973404 388.30175781 1066.63574219 C388.92742438 1064.27396029 389.57763761 1061.92138515 390.2421875 1059.5703125 C393.20948535 1048.93679131 395.51292927 1038.1809389 397.75 1027.375 C397.98225784 1026.26034363 397.98225784 1026.26034363 398.21920776 1025.12316895 C398.66692498 1022.96594534 399.10811739 1020.80749957 399.546875 1018.6484375 C399.68769501 1017.9682103 399.82851501 1017.28798309 399.97360229 1016.58714294 C400.70493493 1012.93933945 401.12280466 1009.44393616 401.24609375 1005.73046875 C402 1002 402 1002 405.17578125 999.65234375 C406.54105208 999.04888601 407.9213825 998.47871879 409.3125 997.9375 C410.78528405 997.28214712 412.25532927 996.62060667 413.72265625 995.953125 C414.81537842 995.46682617 414.81537842 995.46682617 415.93017578 994.97070312 C437.73188898 984.74616766 453.90954327 963.55061353 462.34375 941.484375 C463.3455909 938.34223764 464.19739994 935.19823962 465 932 C465.29648438 931.01386719 465.59296875 930.02773437 465.8984375 929.01171875 C472.37333717 905.63673691 466.69939441 878.55692501 455.04785156 857.77929688 C442.04668881 835.70276515 421.25570962 818.53353379 396.29296875 811.7734375 C395.20628906 811.51820313 394.11960937 811.26296875 393 811 C391.75863281 810.70351562 390.51726563 810.40703125 389.23828125 810.1015625 C363.55921064 804.41133194 337.59866733 809.82185441 315 823 C292.33395882 837.57684325 277.27558367 859.59420737 270.7265625 885.5625 C266.52108145 905.45939959 268.16806989 926.8427796 276.59765625 945.375 C291.06766941 982.77937942 286.61901452 1040.79078727 274 1078 C273.66379639 1079.01658691 273.66379639 1079.01658691 273.32080078 1080.05371094 C263.69329797 1108.76636222 246.02989189 1129.80138926 221.41845703 1147.05249023 C214.56337055 1151.91965787 208.24726678 1157.38362007 202 1163 C201.31292969 1163.61359375 200.62585937 1164.2271875 199.91796875 1164.859375 C182.74822056 1181.10428898 169.50783085 1204.3032787 168.8203125 1228.1796875 C168.52083178 1242.23876733 168.52083178 1242.23876733 171 1256 C171.26659424 1256.94891113 171.26659424 1256.94891113 171.53857422 1257.91699219 C176.78049935 1276.17407113 185.66607755 1291.29831503 196.92773438 1306.48217773 C198 1308 198 1308 199 1310 C194.14567751 1311.5890397 189.5945492 1312.12023005 184.79248047 1310.046875 C178.88842363 1306.83661376 173.42030621 1302.95880699 168 1299 C167.33081543 1298.51321777 166.66163086 1298.02643555 165.97216797 1297.52490234 C157.47132653 1291.2556696 149.63752647 1284.28326195 142 1277 C141.08605469 1276.15050781 140.17210937 1275.30101562 139.23046875 1274.42578125 C118.59568245 1254.6766081 103.90539872 1228.1955206 98.42553711 1200.15527344 C98.13105802 1198.66378667 97.80970428 1197.17744827 97.46704102 1195.69628906 C95.53983962 1186.68944903 95.56008026 1177.66983675 95.5625 1168.5 C95.5614325 1167.6416153 95.56036499 1166.78323059 95.55926514 1165.89883423 C95.59813346 1144.16362016 98.84051369 1123.25260927 107 1103 C107.31952637 1102.20577637 107.63905273 1101.41155273 107.96826172 1100.59326172 C115.0984818 1083.22668767 124.5691762 1068.02002942 135.80078125 1053.03491211 C192.90745734 976.65003656 213.33819504 879.9751539 201.61254883 763.60229492 C197.7306397 737.90627252 192.09434819 712.69899421 184.4375 687.875 C183.87337402 686.04243652 183.87337402 686.04243652 183.29785156 684.17285156 C181.35318272 677.9672957 179.28484993 671.9842557 176.52368164 666.09033203 C176 664 176 664 176.76879883 661.90673828 C178.19626926 659.69604146 179.74185724 657.58661412 181.32543945 655.4855957 C197.90884605 633.33804028 205.1706293 606.6165256 201.46875 579.04296875 C200.76783944 575.64888556 199.93537334 572.33656983 199 569 C198.73316406 567.9378125 198.46632813 566.875625 198.19140625 565.78125 C191.31815128 540.6098629 173.31036703 519.90495462 151 507 C127.55150386 494.3027191 100.56399609 491.35172733 74.94921875 498.45703125 C57.78087181 503.6244614 43.8176103 512.40376466 31 525 C30.32582031 525.66128906 29.65164063 526.32257812 28.95703125 527.00390625 C10.02967918 546.91351612 2.23306233 573.53632478 2.65234375 600.546875 C3.20390174 613.42425402 7.35995839 626.48208369 13 638 C13.42796875 638.89460938 13.8559375 639.78921875 14.296875 640.7109375 C25.3518763 662.38619285 43.75282298 677.67556551 66 687 C67.03785645 687.29233521 67.03785645 687.29233521 68.09667969 687.59057617 C71.15557478 688.47201907 73.32470573 689.15030578 75.34521484 691.69262695 C76.55137922 693.89711382 77.54319449 696.11389597 78.5 698.4375 C78.87253906 699.28586426 79.24507812 700.13422852 79.62890625 701.00830078 C80.7815517 703.66085055 81.89168968 706.32867525 83 709 C83.67600645 710.56166452 84.35305287 712.12287935 85.03125 713.68359375 C94.07782473 734.95901154 100.41579385 757.37057449 105 780 C105.26804443 781.27351318 105.26804443 781.27351318 105.54150391 782.57275391 C106.82812195 788.69435938 107.9647936 794.83106035 109 801 C109.15243164 801.88268555 109.30486328 802.76537109 109.46191406 803.67480469 C114.8170106 835.93261082 113.28308591 869.03456736 107 901 C106.81888672 901.9580957 106.63777344 902.91619141 106.45117188 903.90332031 C104.47991697 914.21182389 101.65754502 924.15530464 98 934 C97.72704102 934.74443359 97.45408203 935.48886719 97.17285156 936.25585938 C86.96361444 963.80387821 72.0185196 987.87601471 53.49267578 1010.54492188 C10.21418932 1063.60601683 -6.05049051 1129.53312203 0.5625 1197.125 C2.29767254 1214.16458231 5.42560364 1230.47418778 10 1247 C10.48823242 1248.77068848 10.48823242 1248.77068848 10.98632812 1250.57714844 C15.08729116 1265.25153378 19.77791037 1279.68821062 25 1294 C23 1294 23 1294 21.6953125 1292.7421875 C21.17710937 1292.12601563 20.65890625 1291.50984375 20.125 1290.875 C19.49851562 1290.13507813 18.87203125 1289.39515625 18.2265625 1288.6328125 C17.49179688 1287.76398438 16.75703125 1286.89515625 16 1286 C14.71222656 1284.54207031 14.71222656 1284.54207031 13.3984375 1283.0546875 C-32.95435275 1230.45226243 -61.98507423 1164.93249202 -68 1095 C-68.11480713 1093.9078418 -68.22961426 1092.81568359 -68.34790039 1091.69042969 C-70.4521489 1069.73999754 -70.4521489 1069.73999754 -66.53662109 1063.76806641 C-62.65968913 1060.2051791 -58.03496955 1058.17444911 -53.24902344 1056.08935547 C-49.71190171 1054.37608613 -46.87467605 1052.020235 -43.9375 1049.4375 C-43.14400146 1048.74865723 -43.14400146 1048.74865723 -42.33447266 1048.04589844 C-25.56928018 1033.10682886 -15.20937031 1011.04104556 -12 989 C-10.10799132 956.14690026 -16.86737636 930.66358204 -39.05078125 905.69140625 C-56.39346428 887.39757059 -81.8214948 876.58805094 -106.90234375 875.81640625 C-115.48014036 875.65754338 -123.68653271 875.70024911 -132 878 C-133.10988281 878.24492188 -134.21976563 878.48984375 -135.36328125 878.7421875 C-150.42884048 882.27782238 -163.08585663 889.111261 -175 899 C-175.86109375 899.69738281 -176.7221875 900.39476562 -177.609375 901.11328125 C-196.15548019 916.86595134 -207.94794293 940.8297499 -210 965 C-211.48060401 993.2758564 -204.74922057 1019.19943568 -186 1041 C-184.86884766 1042.47146484 -184.86884766 1042.47146484 -183.71484375 1043.97265625 C-181.33623023 1046.84416428 -178.6811552 1048.69308565 -175.58032227 1050.72412109 C-167.57605467 1056.11949094 -167.57605467 1056.11949094 -166.0546875 1061.0859375 C-166.06179131 1064.07664181 -166.37994778 1066.89975476 -166.75726318 1069.86022949 C-168.75068364 1087.43260421 -168.24296699 1105.41167657 -168.25 1123.0625 C-168.25058914 1123.74315899 -168.25117828 1124.42381798 -168.25178528 1125.125103 C-168.26523445 1147.21532848 -167.66904021 1169.05518526 -165 1191 C-164.85014648 1192.27907227 -164.70029297 1193.55814453 -164.54589844 1194.87597656 C-160.68062582 1227.23429917 -153.06939136 1258.05414156 -143 1289 C-150.30016543 1288.43023099 -156.83377745 1286.33662099 -163.75 1284 C-164.94214111 1283.59918213 -166.13428223 1283.19836426 -167.36254883 1282.78540039 C-177.90557 1279.16550019 -187.97953449 1274.8635918 -198 1270 C-198.69061523 1269.67177246 -199.38123047 1269.34354492 -200.09277344 1269.00537109 C-230.94263905 1254.33940748 -259.20057902 1234.78809114 -284.21484375 1211.56640625 C-286.52647016 1209.43633815 -288.8661298 1207.36048242 -291.25 1205.3125 C-297.26790572 1200.07953851 -302.79327579 1194.40914541 -307.98046875 1188.35546875 C-309.50853506 1186.57321733 -311.05634156 1184.80786565 -312.61328125 1183.05078125 C-325.20523895 1168.75858967 -336.31329364 1153.3968582 -346 1137 C-346.35255859 1136.40380859 -346.70511719 1135.80761719 -347.06835938 1135.19335938 C-349.43788242 1131.16116914 -351.72706643 1127.08757707 -354 1123 C-354.62261719 1121.91332031 -355.24523438 1120.82664062 -355.88671875 1119.70703125 C-387.12861079 1063.62371592 -398.5066602 997.67735269 -398.3125 934.1875 C-398.31067719 932.94264832 -398.30885437 931.69779663 -398.30697632 930.41522217 C-398.25716043 910.12441477 -397.53490697 890.1338933 -395 870 C-394.9104303 869.27804443 -394.8208606 868.55608887 -394.72857666 867.81225586 C-392.43741302 849.44111723 -389.56966217 831.21919473 -385.66796875 813.11474609 C-384.94927013 809.76344604 -384.25487842 806.40761326 -383.5625 803.05078125 C-380.4834115 788.24024432 -377.04243539 773.5773446 -373 759 C-372.6280249 757.65083496 -372.6280249 757.65083496 -372.24853516 756.27441406 C-349.75621232 675.34827884 -316.84439301 594.90341885 -274.36767578 522.37255859 C-272.53731189 519.19735754 -270.80144588 515.9748459 -269.0637207 512.74829102 C-261.95223705 499.562773 -254.130063 486.81269367 -246.2701416 474.0642395 C-244.85002221 471.75625547 -243.43645483 469.44430989 -242.02246094 467.13256836 C-235.14655861 455.921724 -228.04832055 444.89159706 -220.70901489 433.97906494 C-217.68187372 429.47724584 -214.66789395 424.96661915 -211.65234375 420.45703125 C-210.71611427 419.05780426 -210.71611427 419.05780426 -209.76097107 417.63031006 C-202.64815513 406.99266108 -195.60188234 396.31132887 -188.5625 385.625 C-187.97283447 384.73054169 -187.38316895 383.83608337 -186.77563477 382.91452026 C-175.9506524 366.49295224 -165.15227163 350.05205705 -154.625 333.4375 C-151.2890625 328.18359375 -151.2890625 328.18359375 -149.67675781 325.64794922 C-148.46663531 323.73691418 -147.26374813 321.82129086 -146.06542969 319.90283203 C-145.43282227 318.89462402 -144.80021484 317.88641602 -144.1484375 316.84765625 C-143.57013184 315.92090088 -142.99182617 314.99414551 -142.39599609 314.03930664 C-141.93531738 313.36633545 -141.47463867 312.69336426 -141 312 C-140.67 312 -140.34 312 -140 312 C-140.00666183 312.64463196 -140.01332367 313.28926392 -140.02018738 313.95343018 C-140.0874583 320.76886923 -140.13217356 327.58421145 -140.16479492 334.39990234 C-140.17972071 336.9308659 -140.20006862 339.46180434 -140.22631836 341.99267578 C-140.41846908 361.01936438 -139.76379942 379.45444753 -134.3125 397.8125 C-133.93448242 399.10631592 -133.93448242 399.10631592 -133.54882812 400.42626953 C-129.00458547 415.18410818 -121.8668196 428.36051675 -108 436 C-101.04060677 439.40920552 -93.62742577 440.26840004 -86 439 C-68.88287675 432.63839058 -53.37334518 419.10204459 -40.48974609 406.45898438 C-38.98271925 404.98307608 -37.45581631 403.53013167 -35.92578125 402.078125 C0.20636246 367.36800798 21.17960829 318.36097387 31 270 C31.15452637 269.24912109 31.30905273 268.49824219 31.46826172 267.72460938 C36.07970123 244.92158564 37.23108429 221.34900392 37.25 198.125 C37.25067474 197.36020325 37.25134949 196.59540649 37.25204468 195.80743408 C37.19758035 156.18896523 31.23977392 117.22192561 21.91503906 78.79833984 C21.11343028 75.47085068 20.33992478 72.13931257 19.5859375 68.80078125 C17.35455202 58.97759587 14.6678849 49.4188136 11.54296875 39.84375 C9.8449553 34.60182165 8.3583814 29.30592306 6.875 24 C5.06616417 17.53844625 3.14875298 11.20296482 0.6640625 4.9609375 C0 3 0 3 0 0 Z " fill="#FABF2D" transform="translate(1854,445)"/>
<path d="M0 0 C222.09 0 444.18 0 673 0 C671.26598293 9.24809104 669.5462202 18.36867123 667.375 27.5 C666.846567 29.75755781 666.31930309 32.01538948 665.79296875 34.2734375 C665.50728027 35.49901367 665.2215918 36.72458984 664.92724609 37.98730469 C663.14104675 45.69081392 661.41950795 53.40917022 659.6875 61.125 C659.30128367 62.84440422 658.91505309 64.56380523 658.52880859 66.28320312 C657.74337636 69.78021153 656.95827683 73.27729446 656.17333984 76.77441406 C654.47160311 84.35495778 652.76543266 91.93450357 651.05947876 99.51409912 C650.12279304 103.6760227 649.18641238 107.83801491 648.25 112 C647.87500145 113.66666699 647.50000145 115.33333366 647.125 117 C646.939375 117.825 646.75375 118.65 646.5625 119.5 C626.87500001 206.99999996 626.87500001 206.99999996 626.31262207 209.49943542 C625.93720259 211.16798118 625.56179571 212.83652977 625.18640137 214.50508118 C624.25542226 218.64302105 623.32423212 222.78091319 622.39257812 226.91870117 C620.62698523 234.76136188 618.86371724 242.60452781 617.1072998 250.44924927 C616.27340343 254.17312822 615.4383829 257.8967547 614.60327148 261.62036133 C614.2037813 263.40311255 613.80484782 265.18598862 613.40649414 266.96899414 C612.85571867 269.43407014 612.30306297 271.89871763 611.75 274.36328125 C611.58689331 275.09565506 611.42378662 275.82802887 611.2557373 276.58259583 C610.61209325 279.44369983 609.92819469 282.21541594 609 285 C428.82 285 248.64 285 63 285 C56.25994801 254.66976602 56.25994801 254.66976602 53.15863037 240.49966431 C47.17594311 213.17589742 41.17506722 185.86076102 34.78515625 158.62890625 C30.08246756 138.57092808 25.48636721 118.49183794 21.21411133 98.33740234 C19.1432743 88.59269667 16.9603583 78.87535233 14.75244141 69.16088867 C13.1204429 61.97758327 11.50584002 54.7908593 9.91796875 47.59765625 C9.7422937 46.80273773 9.56661865 46.00781921 9.38562012 45.18881226 C8.69563742 42.06591436 8.0056568 38.9430248 7.32037354 35.8190918 C6.8470555 33.6615078 6.3715753 31.50441936 5.89453125 29.34765625 C5.74197876 28.65717194 5.58942627 27.96668762 5.43225098 27.25527954 C4.63123456 23.67368046 3.78504598 20.1091365 2.87255859 16.55419922 C2.59432503 15.4697477 2.59432503 15.4697477 2.31047058 14.36338806 C1.79383977 12.37002891 1.26771549 10.37913714 0.7409668 8.38842773 C0 5 0 5 0 0 Z " fill="#FABF2D" transform="translate(1602,2029)"/>
<path d="M0 0 C43.70564478 -0.00810491 43.70564478 -0.00810491 60.65789795 -0.0111084 C61.71316244 -0.01129539 62.76842692 -0.01148239 63.85566912 -0.01167505 C133.69842132 -0.02403307 203.54117346 -0.03520696 273.38392639 -0.04234314 C274.74510925 -0.04248259 276.10629212 -0.04262204 277.46747498 -0.04276149 C306.03697571 -0.04568397 334.60647646 -0.04840071 363.17597723 -0.05087968 C377.52667525 -0.0521251 391.87737326 -0.05341008 406.22807127 -0.05473244 C408.39286476 -0.05493169 410.55765824 -0.05512981 412.72245173 -0.05532788 C446.07031884 -0.05838906 479.41818559 -0.06230013 512.76605225 -0.06866455 C513.48345073 -0.06880145 514.20084921 -0.06893835 514.93998704 -0.0690794 C526.50710065 -0.07129186 538.07421425 -0.07357543 549.64132785 -0.07586844 C582.94472842 -0.08246926 616.24812872 -0.08854714 649.55152988 -0.09113979 C650.23590892 -0.09119333 650.92028796 -0.09124686 651.62540575 -0.09130202 C666.64660653 -0.09246759 681.66780732 -0.09336253 696.68900814 -0.09400098 C702.73238017 -0.09426262 708.77575219 -0.09456324 714.81912422 -0.09487724 C715.81127578 -0.09492738 715.81127578 -0.09492738 716.82347081 -0.09497854 C738.82111125 -0.09611026 760.81874908 -0.10072512 782.81638854 -0.10683203 C804.23253247 -0.11270428 825.64867433 -0.11497176 847.06481903 -0.11350138 C859.80654852 -0.1127377 872.54827047 -0.11479603 885.2899986 -0.12079754 C893.78455341 -0.12452715 902.27910324 -0.12467807 910.77365838 -0.12183181 C915.62454558 -0.12031147 920.47541848 -0.1204296 925.32630419 -0.12488318 C929.72907616 -0.12889496 934.13182249 -0.12840413 938.53459402 -0.12413998 C940.12725988 -0.12341887 941.71992756 -0.12441632 943.31259109 -0.12723524 C945.45706015 -0.13079365 947.60143561 -0.12831909 949.74590153 -0.1241985 C951.53507728 -0.12443247 951.53507728 -0.12443247 953.36039799 -0.12467116 C956 0 956 0 957 1 C957 41.59 957 82.18 957 124 C641.19 124 325.38 124 0 124 C0 83.08 0 42.16 0 0 Z " fill="#FABF2D" transform="translate(1460,1815)"/>
<path d="M0 0 C166.32 0 332.64 0 504 0 C502.875467 11.24533001 502.875467 11.24533001 501.90625 15.29296875 C501.68525635 16.23229248 501.4642627 17.17161621 501.23657227 18.1394043 C500.99350342 19.14527588 500.75043457 20.15114746 500.5 21.1875 C499.95663641 23.48949017 499.41369536 25.7915801 498.87109375 28.09375 C498.57315918 29.34929688 498.27522461 30.60484375 497.96826172 31.8984375 C496.32999 38.81956178 494.73809252 45.75151692 493.14041138 52.68209839 C492.56265597 55.18682384 491.98347539 57.6912164 491.40405273 60.19555664 C489.55486629 68.19607356 487.72309485 76.19987512 485.9375 84.21484375 C485.77660385 84.93534409 485.6157077 85.65584442 485.44993591 86.3981781 C484.69699813 89.77106977 483.94838791 93.14474262 483.20727539 96.52026367 C482.94422607 97.70209229 482.68117676 98.8839209 482.41015625 100.1015625 C482.18465088 101.12588379 481.95914551 102.15020508 481.72680664 103.20556641 C481 106 481 106 479 111 C329.18 111 179.36 111 25 111 C19.35268626 89.54020777 19.35268626 89.54020777 17.1875 78.9375 C14.94731741 68.23052651 12.5289883 57.57917122 10 46.9375 C7.4421448 36.15834878 4.91804897 25.37402537 2.5 14.5625 C2.24476562 13.43126709 1.98953125 12.30003418 1.7265625 11.13452148 C1.49710938 10.10141846 1.26765625 9.06831543 1.03125 8.00390625 C0.83080078 7.10486572 0.63035156 6.2058252 0.42382812 5.27954102 C0 3 0 3 0 0 Z " fill="#FABF2D" transform="translate(1686,2403)"/>
<path d="M0 0 C11.58368501 6.74380433 19.10707917 15.5162606 23.15625 28.4375 C25.31131668 39.82234722 22.89987007 51.4771304 16.85546875 61.29296875 C9.54613177 71.22710505 -0.15603761 77.57494673 -12.45703125 79.48046875 C-24.83840919 80.57478246 -34.87086808 78.22199578 -44.89453125 70.73046875 C-52.04289178 64.58009362 -57.98968682 55.92081741 -59.45703125 46.48046875 C-60.22394357 31.92388296 -59.14348983 21.05744339 -49.45703125 9.48046875 C-37.08254976 -3.96664221 -16.45684806 -8.10357897 0 0 Z " fill="#FABE2D" transform="translate(1761.45703125,1382.51953125)"/>
<path d="M0 0 C8.55115822 6.87371862 15.42189036 15.88678583 17 27 C18.0130982 40.08343965 16.32081469 50.51898981 8.375 61.375 C1.12607913 69.77064281 -8.67858618 75.46076724 -19.765625 76.27734375 C-34.27727285 76.78480417 -44.43727169 73.18687821 -55.1875 63.375 C-64.17301395 54.03006549 -66.40557724 43.20803015 -66.2734375 30.66796875 C-65.37760691 18.65104133 -59.69283592 10.19048341 -51.0625 2.1875 C-36.38232108 -10.05542914 -15.86783861 -10.18705651 0 0 Z " fill="#FABF2D" transform="translate(1981,1005)"/>
<path d="M0 0 C8.56099015 6.16743716 14.24659852 14.93779827 16.95703125 25.21875 C18.58146531 37.50105631 16.55158428 49.44580411 9.27734375 59.640625 C3.87030213 66.17190299 -1.84069236 70.5204199 -9.72265625 73.640625 C-10.63402344 74.00414062 -11.54539062 74.36765625 -12.484375 74.7421875 C-22.41383573 77.49704391 -33.89588404 76.72415668 -43.109375 72.1875 C-55.50292247 64.85140912 -61.23913211 56.09119742 -65.72265625 42.640625 C-66.59584427 27.84680488 -64.65917334 17.09617439 -54.90625 5.4765625 C-40.37223582 -10.20255583 -17.53216942 -11.41114345 0 0 Z " fill="#FABF2D" transform="translate(2246.72265625,1318.359375)"/>
</svg>
